<?xml version="1.0" encoding="UTF-8"?>
<svg id="Ebene_1" data-name="Ebene 1" xmlns="http://www.w3.org/2000/svg" viewBox="0 0 6000 6000">
  <defs>
    <style>
      .cls-1 {
        fill: #64932f;
      }

      .cls-2 {
        fill: #6e9a3a;
      }

      .cls-3 {
        fill: #6a9734;
      }

      .cls-4 {
        fill: #fff;
      }

      .cls-5 {
        fill: #679531;
      }

      .cls-6 {
        fill: #729c3f;
      }

      .cls-7 {
        fill: #699633;
      }

      .cls-8 {
        fill: #2e2e2e;
      }
    </style>
  </defs>
  <rect class="cls-8" x="99.71" y="100" width="5800" height="5800" rx="676.86" ry="676.86"/>
  <g>
    <g>
      <path class="cls-1" d="M4569.64,2814.46c1.49,46.12-15.03,83.42-46.27,114.67-77.41,77.42-154.84,154.82-232.28,232.21-119.8,119.73-239.6,239.45-359.41,359.17-5.29,5.29-10.75,10.43-15.93,15.83-24.25,25.32-54.83,39.81-88.47,44.8-46.25,6.87-88.74-4.02-125.11-35.66-25.45-22.14-49.17-45.97-72.97-69.76-177.38-177.28-354.73-354.58-532.07-531.9-7.94-7.94-16.29-15.55-23.48-24.13-19.65-23.45-31.39-51.01-36.77-80.74-4.38-24.2-.8-48.37,7.06-71.8,7.23-21.55,17.14-41.4,34.27-56.98,3.46-3.14,6.58-6.65,9.89-9.96,199.2-199.14,398.39-398.27,597.61-597.38,11.24-11.23,22.27-22.6,36.39-30.57,34.49-19.49,70.22-27.54,110.19-19.73,33.56,6.56,61.13,22.03,85.22,45.05,15.56,14.86,30.55,30.32,45.77,45.54,182,181.92,364.01,363.83,545.97,545.79,9.92,9.92,20.5,19.43,28.89,30.55,21.42,28.4,32.98,60.45,31.5,95.04Z"/>
      <path class="cls-1" d="M2197.51,3582.85c-42.01-.53-78.32-15.03-108.56-44.44-4.7-4.57-9.35-9.19-13.98-13.82-196.01-195.93-392.03-391.86-587.99-587.84-12.55-12.55-25.47-24.68-34.65-40.32-9.59-16.35-17.08-33.11-18.43-52.29-.39-5.55-2.05-11.01-2.96-16.54-.6-3.68-1.49-7.45-1.24-11.11,2.69-39.17,13.46-75.28,40.94-104.75,8.3-8.9,17.03-17.4,25.64-26,190.71-190.64,381.42-381.28,572.14-571.91,4.64-4.63,9.43-9.12,13.91-13.89,23.82-25.4,53.18-40.37,87-47.8,29.37-6.45,57.61-2.86,85.08,7.94,22.85,8.98,42.65,22.41,60.2,40.09,93.03,93.67,186.62,186.78,280.01,280.1,101.33,101.26,202.65,202.53,303.98,303.8,6.62,6.62,13.16,13.32,19.83,19.9,27,26.65,41.65,58.47,45.23,96.67,3.17,33.88-3.32,64.72-19.2,94.19-4.91,9.11-10.6,17.61-18.03,24.91-6.01,5.9-11.78,12.05-17.74,18.01-196,195.94-391.99,391.89-588.06,587.77-9.26,9.25-18.31,19.02-28.85,26.62-27.96,20.16-59.06,31.83-94.26,30.72Z"/>
      <path class="cls-1" d="M2570.21,2155.72c-.56-4.68-1.36-9.25-4.89-12.82-5.92-5.99-11.77-12.06-17.72-18.01-88.02-88.04-175.96-176.16-264.14-264.03-19.61-19.54-33.82-41.97-42.46-68.31-19.39-59.08-4.3-110.17,35.26-155.72,6.74-7.76,14.37-14.74,21.65-22.02,189.99-189.92,380-379.83,570-569.73,7.94-7.94,15.95-15.82,23.95-23.71,22.69-22.39,49.96-35.58,81.39-40.21,10.13-1.49,19.86-5.8,30.39-4.51,32.71,4,64.35,10.65,91,32.25,10.92,8.85,21.64,17.77,31.59,27.72,195.89,195.93,391.85,391.8,587.77,587.71,9.91,9.91,20.01,19.58,27.5,31.7,15.02,24.28,24.84,50.07,24.89,79,0,3.74,0,7.49.12,11.23,1.35,42.62-14.16,78.33-44.09,108.25-82.09,82.05-164.12,164.17-246.17,246.26-11.25,11.25-22.48,22.53-33.72,33.79-4.67,4.69-8.9,9.65-9.96,16.52-13.73,1.17-22.61-8.16-31.67-15.76-43.93-36.87-91.52-67.79-143.58-92.02-26.19-12.19-29.65-20.73-20.61-49.13,27.33-85.9,73.4-161.29,130.86-230.06,9.58-11.46,19.45-22.71,29.8-35.01-56.88,25.13-104.39,60.48-140.51,110.38-1.64,2.27-3.16,4.72-5.2,6.6-5.76,5.32-10.36,16.37-19.93,10.11-7.89-5.16-4.83-15.31-2.81-23.5,7.62-30.92,18.23-60.84,29.58-90.57,19.34-50.67,39.76-100.81,65.04-147.36-69.09,83.01-117.48,179.61-161.34,278.83-3.78,8.55-6.61,17.62-11.47,25.56-4.89,7.98-6.37,23.67-19.31,18.99-10.84-3.92-7.91-17.77-5.98-27.77,15.76-81.7,31.74-163.35,54.35-243.54,10.91-38.7,21.94-77.3,42.18-112.38.44-1.96,1.62-3.23,3.49-3.83.03,0-.48-.84-.89-.66-2.77,1.22-2.13,4.35-3.52,6.46-56.23,97.42-106.35,197.49-138.77,305.63-2.59,8.64-5.39,21.91-15.73,20.37-13.96-2.07-12.12-17.18-12.01-27.66,1.42-135.09,13.27-268.64,61.23-396.53.61-1.73,1.83-3.29,2.28-5,.53-2,4.42-2.38,2.49-5.38,1.84.87.49,1.73-.09,2.43-1.18,1.42-2.34,2.86-3.31,4.5-39.62,98.14-76.49,197.09-91.56,302.61-3.84,26.85-7.33,53.74-9.76,80.77-.8,8.87-.17,21.93-11.92,22.09-9.36.13-9.57-12.17-11.14-20.17-5.38-27.57-7.93-55.56-11.77-83.35-14.12-101.97-48.42-197.75-76.34-264.43,24.83,66.26,35.33,165.18,43.76,264.26,2.69,31.58,8.55,63.11,6.24,95.09-.54,7.45,0,15-1.62,22.36-1.41,6.43-3.01,14.57-10.33,14.94-7.03.36-10.02-7.37-12.82-13.35-1.19-2.54-2.14-5.19-2.93-7.89-30.08-101.86-70.1-199.41-121.68-281.36,20.46,46.61,33.78,105.4,46.92,164.14,11.63,52.04,21.12,104.54,30.46,157.05,1.31,7.37,3.06,14.73,2.1,22.26-.82,6.45-1.57,14.23-9.41,15.18-5.97.72-9.38-5.48-12.17-10.31-11.73-20.33-19.79-42.39-29.07-63.81-41.12-94.94-91.96-184-154.37-261.55,43.73,74.8,73.15,159.79,99.4,246.03,2.33,7.65,5.43,18.22-4.73,22.16-7.56,2.93-13.92-4.39-18.21-10.44-41.8-58.97-100.44-96.9-162.41-130.67-2.32-1.03-4.85-4.23-6.41-3.6-2.71,1.1-2.54,2.3-.48,1.01,1.41-.88,2.97-.34,4.48,1.29,67.31,37.13,103.68,100.63,137.6,165.05,19.05,36.16,32.17,75.38,41.11,115.76,4.95,22.35-.09,38.49-21.38,48.46-57.84,27.1-110.44,62.14-158.39,104.29-5.57,4.9-11.67,9.62-20.08,7.08Z"/>
      <path class="cls-4" d="M3119.5,1430.81c1.75,5.67.31,11.17-1.34,16.48-20.03,64.37-32.79,130.36-41.8,196.99-8.64,63.87-14.29,128.09-14.22,192.66,0,7.15-1.56,14.63,2.47,21.49,7.01-3.62,6.43-11.12,8.2-16.86,12.39-40.2,26.83-79.65,42.85-118.49,24.98-60.55,53.88-119.09,91.25-173.12,5.79-8.37,10.89-17.38,19.39-23.55l-.49-.56c-.44,4.57.18,9.55-1.46,13.64-29.36,73.18-47.62,149.54-64.85,226.16-9.64,42.84-17.98,85.97-26.69,129.02-1.28,6.31-1.33,12.87-2,19.83,8.15-1.44,7.57-8.29,9.48-12.38,15.82-33.88,30.37-68.36,46.42-102.12,25.31-53.25,53.55-104.93,86.76-153.75,17.39-25.57,36.06-50.13,58.42-71.66,2.66-2.56,5.73-4.71,8.71-6.93.4-.3,1.56-.05,2.02.34.67.59,1.63,1.79,1.43,2.29-2.12,5.14-4.19,10.33-6.78,15.24-40.19,76.38-72.2,156.1-97.31,238.6-2.9,9.52-8,18.88-6.1,31.39,6.62-8.88,12.17-16.32,17.71-23.77,41.41-55.67,96.17-93.45,159.95-119.06,2.43-.98,5.39-.72,8.11-.79.81-.02,1.93.63,2.38,1.32.37.56.27,1.89-.16,2.44-3.45,4.34-6.78,8.82-10.63,12.79-51.13,52.74-93.99,111.48-128.24,176.46-18.36,34.84-33.07,71.19-44.51,108.86-2.5,8.23-.79,12.07,7.28,15.47,39.79,16.77,77.44,37.39,112.8,62.17,23.79,16.67,46.44,34.75,67.25,55.07,1.92,1.87,4.5,3.07,6.77,4.58,2.97,3.58,6.13,7.03,8.81,10.81.84,1.19,1.17,3.91.4,4.87-4.06,5.07-8.33,10.02-12.92,14.62-46.16,46.37-92.44,92.63-138.6,139-56.06,56.3-112.06,112.66-168.03,169.05-9.9,9.98-20.26,19.31-32.11,27-65.86,42.71-144.87,29.74-194.17-16.52-4.09-3.84-7.98-7.88-11.94-11.86-101.6-101.97-203.2-203.94-304.77-305.95-4.6-4.62-8.98-9.47-13.29-14.36-2.37-2.69-.61-5.16,1.02-7.48,1.07-1.52,2.17-3.03,3.26-4.55,8.32-7.34,16.61-14.71,24.97-22.01,40.39-35.23,84.58-64.79,132.55-88.69,5.86-2.92,11.91-5.45,17.76-8.38,20.39-10.24,23.16-6.21,16.5-35.73-17.38-77.02-49.68-146.68-98.21-208.87-18.48-23.68-39.57-44.86-61.99-64.81-5.4-4.81-12.71-7.95-15.38-15.53l-.46.46c5.71-.41,11.05.84,16.34,3.07,64.38,27.08,118.47,67.23,158.99,124.73,3.71,5.27,7.82,10.25,12.07,15.8.64-1.81,1.39-2.81,1.19-3.56-2.11-8.09-4.22-16.18-6.6-24.19-24.84-83.57-57.32-164.05-97.7-241.33-3.44-6.59-6.49-13.39-9.57-20.16-.25-.55.48-1.74,1.04-2.4.27-.32,1.41-.39,1.78-.1,13.13,10.64,24.56,22.97,35.39,35.9,29.55,35.27,53.83,74.08,76.58,113.92,32.03,56.09,59.26,114.53,84.81,173.79,4.75,11.02,8.58,22.51,16.1,33.84,3.43-16.46-3.45-30.37-4.89-44.82-1.47-14.81-5.38-29.38-8.13-44.07-2.75-14.69-5.2-29.45-8.14-44.1-2.94-14.65-6.34-29.22-9.52-43.82-3.19-14.61-6.2-29.25-9.58-43.82-3.38-14.56-6.92-29.1-10.77-43.54-3.84-14.45-7.95-28.83-12.31-43.13-4.36-14.3-9.04-28.51-13.81-42.68-4.66-13.87-11.02-27.16-16.55-42.58,7.29,2.38,9.56,6.26,12.25,9.76,21.17,27.51,38.96,57.13,54.9,87.9,32.79,63.29,57.89,129.64,79.35,197.5,4.12,13.03,5.93,27.05,15.01,40.7,3.24-52.3-2.06-102.22-6.15-152.03-4.05-49.32-11.25-98.37-20.48-147.07-9.36-49.38-21.97-97.96-37.61-148.94,10.81,10.16,15.04,20.58,20.08,30.36,21.91,42.48,39.41,86.76,53.71,132.35,21.32,67.99,35.55,137.42,43.24,208.24,1.71,15.73,4.56,31.34,7.32,49.9,3.22-27.81,5.67-52.61,9.03-77.28,14.07-103.45,40.86-203.28,85.95-297.78,4.82-10.1,10.5-19.81,16.06-29.54.64-1.11,3.11-1.17,4.74-1.72l-.55-.46Z"/>
      <path class="cls-4" d="M3335.04,2616.39c32.52,2.68,59.55,4.68,86.54,7.2,26.98,2.52,53.88,5.79,80.86,8.31,50.26,4.69,100.56,8.91,150.81,13.66,16.7,1.58,33.24,4.15,49.74,7.72,19.12,4.14,38.84,5.43,58.24,8.38,2.07.31,4.61,3.18,5.33,5.39,1.13,3.46.77,7.39,1.25,11.09,1.18,9,3.23,11.18,12.43,11.35,25.26.47,50.5,1.03,75.46,5.46,11.96,2.12,23.89,4.41,35.84,6.54,5.98,1.07,11.02-.78,15.1-5.29,5.64-6.24,11.33-12.44,16.94-18.7,36.86-41.08,73.5-82.37,110.67-123.16,14.48-15.89,29.56-31.33,45.41-45.83,22.97-21.02,48.68-37.91,79.3-45.98,1.65-.43,3.53-.18,5.27.04.43.05,1.2,1.5,1,1.84-1.84,3.2-3.57,6.52-5.85,9.39-38.43,48.33-76.96,96.57-115.39,144.89-18.05,22.69-35.95,45.49-53.8,68.34-1.02,1.3-1.62,3.7-1.13,5.15.36,1.07,2.81,1.97,4.35,2.01,3.72.09,7.48-.17,11.17-.65,56.52-7.29,113.05-14.56,169.55-22.01,50.02-6.59,100-13.53,150.04-19.99,10.09-1.3,20.36-1.18,30.55-1.6.54-.02,1.39.99,1.61,1.67.28.84.43,2.12-.01,2.74-5.02,7-12.19,11.44-19.38,15.8-24.24,14.7-50.66,24.09-78.07,30.44-33.67,7.8-67.46,15.25-101.41,21.68-60.59,11.47-121.34,22.09-182.03,33.02-10.11,1.82-20.28,3.31-30.39,5.17-6.2,1.14-9.72,4.74-9.96,11.44-.72,20.21-8.19,38.22-18.66,55.13-2.94,4.75-5.96,9.67-9.88,13.57-8.43,8.37-14.59,16.79-8.84,29.48,2.03,4.49-.73,9.11-2.61,13.38-.37.85-.92,1.65-1.52,2.35-19.63,22.57-34.5,48.71-54.37,71.18-83.65,94.61-166.89,189.6-250.3,284.43-3.7,4.21-7.17,8.74-11.43,12.31-11.83,9.9-25.16,11.91-39.23,5.33-5.01-2.34-10-5.29-14.08-8.98-24.94-22.56-27.03-41.01-7.17-68.56,4.89-6.79,11.01-12.72,16.81-18.82,83.17-87.47,166.36-174.92,249.59-262.33,8.97-9.42,18.33-17.87,30.22-24.36,11.15-6.08,19.74-16.88,29.31-25.76,2.73-2.53,2.27-6.96-.81-9.94-4.02-3.9-8.53-7.33-12.26-11.47-4.68-5.2-.83-17.2,6.03-18.47,6.38-1.18,12.98-1.11,19.45-1.84,14.1-1.59,21.81-12.68,17.51-25.73-5.91-17.91-13.76-34.51-31.79-43.82-9.02-4.66-17.6-5.9-26.27.56-5.23,3.9-10.36,8.02-15.97,11.29-6.68,3.89-16.08,1.95-20.16-4.29-16.57-25.34-11.53-21.73-42.77-23.24-16.78-.81-33.55-2.47-50.38-.28-4.57.59-9.35-.09-14-.51-31.64-2.83-63.27-5.82-94.92-8.62-24.21-2.15-48.43-4.17-72.65-6.12-32.61-2.63-65.23-5.12-97.85-7.72-26.1-2.09-52.19-4.23-78.28-6.42-3.71-.31-7.48-.64-11.05-1.6-17.01-4.53-24.62-14.74-24.22-32.74.12-5.57.37-11.38,2.01-16.62,5.71-18.23,17.89-27.96,34.77-26.32,3.7.36,7.47.05,5.71.05Z"/>
      <path class="cls-4" d="M1778.64,2951.48c0-17.79-.18-35.58.06-53.37.18-13.64,2.43-15.71,16.99-15.83,21.53-.19,43.07,0,64.6-.11,4.64-.03,9.28-.64,13.91-1.07,2.46-.23,3.95-4.5,2.19-6.48-4.97-5.58-9.86-11.25-15.13-16.55-67.97-68.41-136.01-136.76-204-205.15-5.94-5.97-11.99-11.87-17.49-18.22-5.38-6.21-5.52-13.86-3.16-21.23,2.09-6.54,6.82-11.86,13.68-12.85,19.42-2.79,38.94-4.82,58.45-6.96,7.17-.79,12.64,3.04,17.23,7.92,11.53,12.28,22.89,24.73,34.25,37.17,47.36,51.83,94.69,103.68,142.05,155.51,5.68,6.22,11.6,12.22,17.24,18.47,4.7,5.2,10.36,7.46,17.37,7.4,17.79-.16,35.6.5,53.36-.16,13.25-.49,23.93,2.43,30.54,14.95,1.73,3.27,4.5,5.98,6.6,9.07,3.95,5.81,9.11,8.74,16.36,8.99,13.08.44,26.13,2.06,39.21,2.29,10.27.18,20.07-1.23,28.73-8.62,11.13-9.49,25.61-10.72,39.55-12.54,5.22-.68,8.58-3.24,9.46-8.55.61-3.69.63-7.52,1.61-11.09,3.57-12.96,12.82-20.93,25.88-22.14,5.57-.52,11.23-.25,16.84-.26,12.17-.02,24.35-.25,36.51.07,22.8.61,30.65,8.14,34.02,32.02.13.92.12,1.87.11,2.81-.09,6.75,4.03,10.13,9.84,11.82,5.38,1.56,11.03,2.29,16.3,4.13,9.68,3.38,19.35,6.71,26.6,14.88,7.92,8.93,18.3,12.17,30.26,11.77,13.09-.45,26.22.27,39.32-.11,9.28-.26,16,2.34,20.42,11.25,4.98,10.03,11.89,19.14,16.61,29.27,5.29,11.36,14.16,16.5,25.59,19.51,29.84,7.86,59.56,16.16,89.33,24.3,5.41,1.48,10.71,3.73,16.21,4.45,22.07,2.89,34.41,18.56,36.39,43.24,1.19,14.89.63,29.93.61,44.9,0,5.82-2.96,8.86-8.14,9.22-3.73.26-7.49.56-11.21.4-7.4-.32-15.6.89-21.98-1.92-7.87-3.47-4.35-13.27-6.06-20.19-9.85-39.86-33.21-66.87-74.1-75.52-38.66-8.18-69.69,5.84-93.47,36.7-7.52,9.76-12.04,21.06-15.04,32.96-1.9,7.54,0,12.83,4.92,13.92,6.11,1.36,9.59-.88,12.17-7.91,1.93-5.27,3.32-10.81,5.8-15.8,13.68-27.46,35.52-42.69,66.65-43.36,31.39-.68,54.61,13.79,67.53,41.52,25.9,55.55-16.83,107.08-64.55,106.77-17.58-.12-33.36-4.42-46.96-15.38-6.28-5.06-12.92-7.03-20.71-6.75-6.55.23-13.11,0-19.66,0-132.96,0-265.91,0-398.87,0-3.75,0-7.5.2-11.23-.03-11.56-.71-21.43,2-31.3,9.15-21.25,15.37-45.23,17.02-69.42,7.73-30.32-11.65-47.05-38.85-46.16-73,.77-29.45,19.65-56.34,48.31-65.94,38.29-12.83,75.05,2.53,92.41,37.54,3.29,6.65,4.69,14.21,7.66,21.05.89,2.04,3.96,3.68,6.36,4.41,4.98,1.51,9.88-2.23,9.69-6.83-.04-.93.09-1.86.02-2.79-2.47-30.74-32.59-66.55-68.49-73.33-16.66-3.15-33.82-3.01-50.21,1.37-26.65,7.12-46.76,22.86-58.06,48.77-1.8,4.13-2.3,9.55-7.21,11.45-6.25,2.42-12.8,2.61-18.97-.42-1.44-.71-2.88-2.61-3.2-4.19-.72-3.62-1.01-7.38-1.03-11.08-.09-17.79-.04-35.58-.04-53.37h.05Z"/>
      <path class="cls-4" d="M3120.04,1431.27c0-1.77-.33-3.63.12-5.27.29-1.06,1.73-1.8,2.66-2.69.25,1.6,1.13,3.47.58,4.71-.57,1.26-2.54,1.89-3.9,2.79,0,0,.55.46.55.46Z"/>
      <path class="cls-4" d="M2586.4,1711.7c-.69-.31-1.38-.61-2.08-.92.54.46,1.08.92,1.62,1.38l.46-.46Z"/>
      <path class="cls-4" d="M3226.31,1526.4c.85-1.21,1.69-2.43,2.54-3.64,2.02,4-.74,3.31-3.03,3.09l.49.56Z"/>
      <path class="cls-6" d="M3920.04,2717.87c5.71.54,10.24,6.32,9.25,11.8-1.21,6.68-7.31,11.12-14.33,10.42-5.67-.57-10.07-6.23-9.21-11.87,1.01-6.58,7.14-11.02,14.29-10.35Z"/>
      <path class="cls-5" d="M1777.8,2684.98c1.87,1.25,4.59,2.36,6.33,4.34,18.46,20.95,36.8,42.01,55.07,63.13,3.63,4.2,2.37,8.36-3.14,10.45-37.17,14.12-26.04,17.08-54.06-10.43-15.94-15.65-31.34-31.84-46.9-47.87-2.92-3.01-1.89-7.79,1.77-8.9,11.57-3.5,23.17-6.9,34.79-10.21,1.74-.5,3.68-.33,6.13-.51Z"/>
      <path class="cls-2" d="M2238.75,2902.17c-33.68-2.7-65.51-3.26-96.51-10.84-14.45-3.53-29.14-6.9-40.94-17.06-3.84-3.31-2.98-8.71,2.17-11.03,3.29-1.48,6.51-3.72,10.51-1.94,54.1,24.03,111.15,21.3,168.1,17.84,11.92-.72,23.66-5.04,35.39-8.05,5.14-1.32,9.05.51,12.93,3.29,4.39,3.15,3.93,8.53-.64,11.22-9.85,5.8-20.81,8.82-31.78,10.4-20.29,2.92-40.79,4.32-59.25,6.16Z"/>
      <path class="cls-7" d="M1706.03,2611.59c1.93.89,5.99,1.64,8.39,4.05,15.17,15.23,30.02,30.8,44.87,46.34,2.54,2.66.77,8-3.05,8.89-14.4,3.38-27.96,10.4-43.22,10.12-9.52-8.93-19.19-17.71-28.51-26.84-9.35-9.16-18.42-18.62-27.41-28.14-1.03-1.09-1.31-3.61-.85-5.14.42-1.39,2.2-3.17,3.58-3.36,14.8-2.07,29.63-3.85,46.19-5.93Z"/>
      <path class="cls-3" d="M1904.87,2825.58c-5.44,9.22-13.5,14.11-20.9,19.61-3.29,2.45-7.29,1.72-10.19-1.09-10.73-10.38-21.8-20.49-31.71-31.61-6.49-7.29-17.52-11.38-18-23.36,8.98-6.91,19.91-9.5,30.23-13.39,1.39-.53,3.95.18,5.14,1.24,16.61,14.96,31.45,31.54,45.44,48.6Z"/>
      <path class="cls-3" d="M2489.01,3050.71c-.57,13.56-15,26.44-27.97,25-13.91-1.55-25.97-15.69-24.49-28.7,1.43-12.58,14.55-24.25,26.66-23.72,13.88.61,26.38,13.9,25.8,27.42Z"/>
      <path class="cls-3" d="M1919.34,3049.09c.13,14.85-12.17,27.45-26.14,26.78-13.1-.63-24.39-11.99-25.25-25.41-.88-13.8,11.82-26.24,26.77-26.21,13.94.02,24.49,10.68,24.62,24.85Z"/>
    </g>
    <g>
      <path class="cls-4" d="M1395.97,4337.17c0,26.36-5.75,60.2-17.24,101.53-11.5,41.34-33.64,78.31-66.45,110.92-32.82,32.61-71.6,48.91-116.35,48.91-138.81,0-208.21-108.7-208.21-326.09,0-102.77,18.07-181.4,54.21-235.92,36.13-54.51,87.47-81.77,154-81.77,95.86,0,153.77,51.22,173.73,153.66l-107.51,50.89c-2.12-55.34-25.1-83.01-68.95-83.01-19.05,0-34.55,6.51-46.5,19.52-11.95,13.02-19.73,31.05-23.36,54.1-3.63,23.06-5.44,62.59-5.44,118.58,0,65.88,1.96,111.09,5.9,135.63,3.93,24.54,11.94,42.98,24.04,55.34,12.09,12.35,27.82,18.53,47.18,18.53,45.36,0,69.55-40.84,72.58-122.53h-75.3v-119.57h203.67v101.29Z"/>
      <path class="cls-4" d="M1705.33,4271.46c-18.52-3.95-31.58-5.93-39.16-5.93-52.52,0-78.78,29.98-78.78,89.92v230.74h-110.68v-423.92h103.42v100.3h1.82c17.29-74.11,58.42-111.99,123.38-113.64v122.53Z"/>
      <path class="cls-4" d="M2067.31,4399.92h-195.96c1.81,45.79,6.42,75.76,13.84,89.92,7.41,14.17,20.48,21.25,39.24,21.25,23.88,0,36.89-16.8,39.01-50.4h97.53c-3.93,44.47-18.37,78.56-43.32,102.27-24.95,23.72-58.14,35.57-99.57,35.57-52.92,0-93.15-19.35-120.66-58.06-27.52-38.7-41.28-95.27-41.28-169.72,0-66.21,15.27-119.57,45.81-160.08,30.54-40.51,70.46-60.77,119.75-60.77,35.08,0,64.33,11.12,87.77,33.35,23.43,22.23,38.93,49.99,46.5,83.25,7.56,33.27,11.34,77.74,11.34,133.4ZM1963.44,4330.25c-.3-35.9-3.63-62.42-9.98-79.55-6.35-17.12-17.24-25.69-32.66-25.69-17.85,0-30.47,8.48-37.88,25.45-7.41,16.97-11.27,43.56-11.57,79.79h92.08Z"/>
      <path class="cls-4" d="M2444.27,4399.92h-195.96c1.81,45.79,6.42,75.76,13.84,89.92,7.41,14.17,20.48,21.25,39.24,21.25,23.88,0,36.89-16.8,39.01-50.4h97.53c-3.93,44.47-18.37,78.56-43.32,102.27-24.95,23.72-58.14,35.57-99.57,35.57-52.92,0-93.15-19.35-120.66-58.06-27.52-38.7-41.28-95.27-41.28-169.72,0-66.21,15.27-119.57,45.81-160.08,30.54-40.51,70.46-60.77,119.75-60.77,35.08,0,64.33,11.12,87.77,33.35,23.43,22.23,38.93,49.99,46.5,83.25,7.56,33.27,11.34,77.74,11.34,133.4ZM2340.39,4330.25c-.3-35.9-3.63-62.42-9.98-79.55-6.35-17.12-17.24-25.69-32.66-25.69-17.85,0-30.47,8.48-37.88,25.45-7.41,16.97-11.27,43.56-11.57,79.79h92.08Z"/>
      <path class="cls-4" d="M2635.69,4162.26v78.06h1.81c16.93-31.29,33.79-54.18,50.58-68.68,16.78-14.49,36.36-21.74,58.74-21.74,27.51,0,49.59,12.93,66.23,38.79,16.63,25.86,24.95,60.2,24.95,103.01v294.47h-109.77v-245.06c0-21.08-4.08-37.63-12.25-49.65-8.17-12.02-19.51-18.03-34.02-18.03-30.85,0-46.27,26.02-46.27,78.06v234.69h-110.68v-423.92h110.68Z"/>
      <path class="cls-1" d="M3535.2,4337.17c0,26.36-5.75,60.2-17.24,101.53-11.5,41.34-33.65,78.31-66.45,110.92-32.82,32.61-71.6,48.91-116.35,48.91-138.8,0-208.21-108.7-208.21-326.09,0-102.77,18.07-181.4,54.21-235.92,36.13-54.51,87.47-81.77,154-81.77,95.86,0,153.77,51.22,173.73,153.66l-107.51,50.89c-2.12-55.34-25.1-83.01-68.95-83.01-19.05,0-34.55,6.51-46.49,19.52-11.95,13.02-19.73,31.05-23.36,54.1-3.63,23.06-5.44,62.59-5.44,118.58,0,65.88,1.96,111.09,5.9,135.63,3.93,24.54,11.94,42.98,24.04,55.34,12.09,12.35,27.82,18.53,47.18,18.53,45.36,0,69.55-40.84,72.58-122.53h-75.3v-119.57h203.67v101.29Z"/>
      <path class="cls-1" d="M3930.75,4432.53c0,49.74-14.14,89.85-42.41,120.31-28.28,30.47-65.55,45.7-111.82,45.7-50.2,0-89.36-15.23-117.49-45.7-28.12-30.46-42.18-73.04-42.18-127.72v-262.85h111.59v269.27c0,45.13,16.03,67.69,48.08,67.69,29.03,0,43.55-21.25,43.55-63.74v-273.23h110.68v270.26Z"/>
      <path class="cls-1" d="M4325.4,4586.18h-110.68v-71.64h-1.81c-18.11,56-48.44,83.99-90.98,83.99-30.18,0-56.58-15.97-79.21-47.93-22.63-31.94-33.94-89.26-33.94-171.94,0-152.5,38.62-228.76,115.87-228.76,41.94,0,71.05,29.32,87.36,87.95h1.81v-75.59h111.59v423.92ZM4162.81,4256.14c-26.48,0-39.72,36.07-39.72,108.2,0,43.16,3.61,74.53,10.83,94.12,7.22,19.6,19.26,29.4,36.11,29.4,15.95,0,27.39-8.89,34.31-26.68,6.92-17.79,10.38-46.27,10.38-85.48,0-41.5-3.91-71.8-11.74-90.91-7.82-19.1-20.62-28.66-38.37-28.66h-1.81Z"/>
      <path class="cls-1" d="M4647.92,4271.46c-18.52-3.95-31.57-5.93-39.16-5.93-52.52,0-78.78,29.98-78.78,89.92v230.74h-110.68v-423.92h103.42v100.3h1.82c17.29-74.11,58.42-111.99,123.38-113.64v122.53Z"/>
      <path class="cls-1" d="M5011.71,4586.18h-110.68v-69.67h-1.81c-20.22,54.68-51.15,82.02-92.79,82.02-28.97,0-54.77-16.06-77.4-48.17-22.63-32.12-33.94-90.99-33.94-176.63,0-72.14,10.18-127.3,30.55-165.52,20.37-38.21,49.41-57.31,87.13-57.31,40.44,0,69.25,28.66,86.46,85.97h1.81v-310.28h110.68v659.6ZM4852.74,4257.13c-28.89,0-43.33,39.53-43.33,118.58s15.34,114.13,46.04,114.13c16.24,0,27.9-8.89,34.98-26.68,7.07-17.79,10.61-46.61,10.61-86.46,0-79.71-15.8-119.57-47.4-119.57h-.9Z"/>
    </g>
    <g>
      <path class="cls-4" d="M1251.79,4836.18h19.64v185.81h-19.64v-185.81Z"/>
      <path class="cls-4" d="M1456.44,4941.03v80.96h-18.85v-79.1c0-29.46-15.4-44.59-41.94-44.59-29.99,0-48.84,18.58-48.84,50.43v73.26h-18.85v-196.96h18.85v81.75c10.35-16.19,28.67-25.48,52.29-25.48,33.98,0,57.33,19.64,57.33,59.72Z"/>
      <path class="cls-4" d="M1578.01,4881.3v18.32c-1.59,0-3.19-.26-4.51-.26-29.2,0-46.98,18.58-46.98,51.5v71.14h-18.85v-139.62h18.05v27.34c8.76-18.58,26.54-28.4,52.29-28.4Z"/>
      <path class="cls-4" d="M1818.5,4929.08h18.85v70.87c-17.52,15.66-42.47,23.62-68.22,23.62-56.54,0-97.95-40.08-97.95-94.5s41.41-94.5,98.21-94.5c28.14,0,52.56,9.02,69.01,26.81l-12.21,12.48c-15.66-15.4-34.24-21.77-56.01-21.77-45.92,0-79.63,32.65-79.63,76.98s33.71,76.98,79.37,76.98c17.78,0,34.24-3.98,48.58-14.33v-62.64Z"/>
      <path class="cls-4" d="M1959.18,4881.3v18.32c-1.59,0-3.19-.26-4.51-.26-29.2,0-46.98,18.58-46.98,51.5v71.14h-18.85v-139.62h18.05v27.34c8.76-18.58,26.54-28.4,52.29-28.4Z"/>
      <path class="cls-4" d="M2121.1,4882.37v139.62h-18.05v-25.48c-9.82,16.99-27.87,26.81-50.17,26.81-35.57,0-58.93-19.91-58.93-59.99v-80.96h18.85v79.1c0,29.73,15.4,44.86,41.94,44.86,29.2,0,47.51-18.85,47.51-50.7v-73.26h18.85ZM2022.62,4843.35c0-6.37,5.04-11.41,11.41-11.41s11.41,5.04,11.41,11.41-5.31,11.41-11.41,11.41-11.41-4.78-11.41-11.41ZM2069.87,4843.35c0-6.37,5.31-11.41,11.41-11.41s11.41,5.04,11.41,11.41-5.04,11.41-11.41,11.41-11.41-4.78-11.41-11.41Z"/>
      <path class="cls-4" d="M2302.4,4941.03v80.96h-18.85v-79.1c0-29.46-15.4-44.59-41.94-44.59-29.99,0-48.84,18.58-48.84,50.43v73.26h-18.85v-139.62h18.05v25.75c10.09-16.99,28.93-26.81,53.09-26.81,33.98,0,57.33,19.64,57.33,59.72Z"/>
      <path class="cls-4" d="M2418.92,4838.3c0-7.17,6.11-13.27,13.8-13.27s13.8,5.84,13.8,13.01c0,7.7-5.84,13.8-13.8,13.8s-13.8-6.1-13.8-13.54ZM2423.17,4882.37h18.85v139.62h-18.85v-139.62Z"/>
      <path class="cls-4" d="M2623.05,4941.03v80.96h-18.85v-79.1c0-29.46-15.4-44.59-41.94-44.59-29.99,0-48.84,18.58-48.84,50.43v73.26h-18.85v-139.62h18.05v25.75c10.09-16.99,28.93-26.81,53.09-26.81,33.98,0,57.33,19.64,57.33,59.72Z"/>
      <path class="cls-4" d="M2885.3,4952.18c0,42.21-29.73,71.14-69.54,71.14-23.09,0-42.47-10.09-53.88-28.93v27.61h-18.05v-196.96h18.85v83.88c11.68-18.05,30.79-27.61,53.09-27.61,39.82,0,69.54,28.67,69.54,70.87ZM2866.46,4952.18c0-32.65-22.56-54.42-52.03-54.42s-52.03,21.77-52.03,54.42,22.3,54.42,52.03,54.42,52.03-21.77,52.03-54.42Z"/>
      <path class="cls-4" d="M3045.37,4958.02h-116.79c2.12,29.2,24.42,48.58,54.95,48.58,16.99,0,32.12-6.1,42.74-18.31l10.62,12.21c-12.48,14.86-31.85,22.83-53.88,22.83-43.53,0-73.26-29.73-73.26-71.14s28.93-70.87,68.22-70.87,67.69,28.93,67.69,70.87c0,1.59-.26,3.72-.26,5.84ZM2928.57,4943.95h99.01c-2.39-27.34-22.3-46.45-49.64-46.45s-46.98,19.11-49.37,46.45Z"/>
      <path class="cls-4" d="M3064.74,5006.06l8.49-14.86c11.15,8.76,29.99,15.66,49.64,15.66,26.54,0,37.43-9.02,37.43-22.83,0-36.37-90.51-7.7-90.51-62.91,0-22.83,19.64-39.82,55.21-39.82,18.05,0,37.69,5.04,49.37,13.01l-8.23,15.13c-12.21-8.49-26.81-11.94-41.14-11.94-25.22,0-36.36,9.82-36.36,23.09,0,37.69,90.51,9.29,90.51,62.91,0,24.15-21.24,39.82-57.6,39.82-23.09,0-45.39-7.43-56.8-17.25Z"/>
      <path class="cls-4" d="M3287.45,5013.49c-7.43,6.64-18.58,9.82-29.46,9.82-26.28,0-40.88-14.86-40.88-40.61v-84.41h-24.95v-15.93h24.95v-30.53h18.85v30.53h42.47v15.93h-42.47v83.35c0,16.46,8.49,25.48,24.15,25.48,7.7,0,15.4-2.39,20.7-7.17l6.64,13.54Z"/>
      <path class="cls-4" d="M3438.22,4958.02h-116.79c2.12,29.2,24.42,48.58,54.95,48.58,16.99,0,32.12-6.1,42.74-18.31l10.62,12.21c-12.48,14.86-31.85,22.83-53.88,22.83-43.53,0-73.26-29.73-73.26-71.14s28.93-70.87,68.22-70.87,67.69,28.93,67.69,70.87c0,1.59-.26,3.72-.26,5.84ZM3321.43,4943.95h99.01c-2.39-27.34-22.3-46.45-49.64-46.45s-46.98,19.11-49.37,46.45Z"/>
      <path class="cls-4" d="M3605.45,4941.03v80.96h-18.85v-79.1c0-29.46-15.4-44.59-41.94-44.59-29.99,0-48.84,18.58-48.84,50.43v73.26h-18.85v-139.62h18.05v25.75c10.09-16.99,28.93-26.81,53.09-26.81,33.98,0,57.34,19.64,57.34,59.72Z"/>
      <path class="cls-4" d="M3885.49,4836.18v185.81h-19.38v-85.74h-116.26v85.74h-19.64v-185.81h19.64v82.82h116.26v-82.82h19.38Z"/>
      <path class="cls-4" d="M4047.41,4935.46v86.53h-18.05v-21.77c-8.49,14.33-24.95,23.09-48.04,23.09-31.59,0-50.96-16.46-50.96-40.61,0-21.5,13.8-39.55,53.88-39.55h44.33v-8.49c0-23.89-13.54-36.9-39.55-36.9-18.05,0-35.04,6.37-46.45,16.46l-8.49-14.07c14.07-11.94,34.77-18.85,56.8-18.85,36.1,0,56.54,18.05,56.54,54.15ZM4028.56,4980.05v-22.83h-43.8c-27.07,0-35.83,10.62-35.83,24.95,0,16.19,13.01,26.28,35.3,26.28s36.9-10.09,44.33-28.4ZM3956.36,4843.35c0-6.37,5.04-11.41,11.41-11.41s11.41,5.04,11.41,11.41-5.31,11.41-11.41,11.41-11.41-4.78-11.41-11.41ZM4003.61,4843.35c0-6.37,5.31-11.41,11.41-11.41s11.41,5.04,11.41,11.41-5.04,11.41-11.41,11.41-11.41-4.78-11.41-11.41Z"/>
      <path class="cls-4" d="M4227.11,4941.03v80.96h-18.85v-79.1c0-29.46-15.4-44.59-41.94-44.59-29.99,0-48.84,18.58-48.84,50.43v73.26h-18.85v-139.62h18.05v25.75c10.09-16.99,28.93-26.81,53.09-26.81,33.98,0,57.34,19.64,57.34,59.72Z"/>
      <path class="cls-4" d="M4406.28,4825.03v196.96h-18.05v-27.61c-11.41,18.85-30.79,28.93-53.88,28.93-39.82,0-69.55-28.93-69.55-71.14s29.73-70.87,69.55-70.87c22.3,0,41.41,9.56,53.09,27.61v-83.88h18.85ZM4387.7,4952.18c0-32.65-22.3-54.42-51.76-54.42s-52.03,21.77-52.03,54.42,22.3,54.42,52.03,54.42,51.76-21.77,51.76-54.42Z"/>
      <path class="cls-4" d="M4580.41,4958.02h-116.79c2.12,29.2,24.42,48.58,54.95,48.58,16.99,0,32.12-6.1,42.74-18.31l10.62,12.21c-12.48,14.86-31.85,22.83-53.88,22.83-43.53,0-73.26-29.73-73.26-71.14s28.93-70.87,68.22-70.87,67.69,28.93,67.69,70.87c0,1.59-.26,3.72-.26,5.84ZM4463.62,4943.95h99.01c-2.39-27.34-22.3-46.45-49.64-46.45s-46.98,19.11-49.37,46.45Z"/>
      <path class="cls-4" d="M4747.64,4941.03v80.96h-18.85v-79.1c0-29.46-15.4-44.59-41.94-44.59-29.99,0-48.84,18.58-48.84,50.43v73.26h-18.85v-139.62h18.05v25.75c10.09-16.99,28.93-26.81,53.09-26.81,33.98,0,57.34,19.64,57.34,59.72Z"/>
    </g>
  </g>
</svg>